# xmcd
#
# Track frame offsets:
#	150
#	12152
#	22722
#	33002
#	43377
#	57157
#	69835
#	82370
#	92120
#	105562
#	118140
#	129602
#	140062
#	152635
#	161487
#
# Disc length: 2334 seconds
#
# Revision: 0
# Processed by: cddbd v1.4PL0 Copyright (c) Steve Scherf et al.
# Submitted via: dBpowerAMP V4.0
#
DISCID=c2091c0f
DTITLE=Various Artist - Tennessee Guitars
DYEAR=1900
DGENRE=Country
TTITLE0=Before The Next Teardrop Falls
TTITLE1=Blue Hawaii
TTITLE2=Calcutta
TTITLE3=Gentle On My Mind
TTITLE4=Cherry Pink And Apple Blossom White
TTITLE5=Hawaiian Wedding Song
TTITLE6=La Paloma
TTITLE7=Lisbon Antigua
TTITLE8=Maria Elena
TTITLE9=Never On A Sunday
TTITLE10=Perfidia
TTITLE11=Sweet Leilani
TTITLE12=Harry Lime Theme (The Third Man)
TTITLE13=White Silver Sands
TTITLE14=Oh, Pretty Woman
EXTD=
EXTT0=
EXTT1=
EXTT2=
EXTT3=
EXTT4=
EXTT5=
EXTT6=
EXTT7=
EXTT8=
EXTT9=
EXTT10=
EXTT11=
EXTT12=
EXTT13=
EXTT14=
PLAYORDER=
